# xmcd CD database file
#
# Track frame offsets:
#	150
#	11677
#	26301
#	41985
#	63466
#	75833
#	85563
#	100791
#	112947
#	123138
#
# Disc length: 1913 seconds
#
# Revision: 0
# Processed by: cddbd v1.5.2PL0 Copyright (c) Steve Scherf et al.
# Submitted via: CDex 1.51
#
DISCID=6507770a
DTITLE=Chip Taylor - Some Of Us
DYEAR=1974
DGENRE=Country
TTITLE0=Me As I Am
TTITLE1=Early Sunday Morning
TTITLE2=(It's A Long Way) Back To The Heart
TTITLE3=Something 'bout The Way The Story Ends
TTITLE4=Funny Songs
TTITLE5=Comin' From Behind
TTITLE6=If You're Ever In Warsaw
TTITLE7=If I Can't Be In Austin
TTITLE8=Here Again
TTITLE9=Some Of Us
EXTD=YEAR: 1974
EXTT0=
EXTT1=
EXTT2=
EXTT3=
EXTT4=
EXTT5=
EXTT6=
EXTT7=
EXTT8=
EXTT9=
PLAYORDER=
